# xmcd
#
# Track frame offsets: 
#        150
#        29872
#        52529
#        72746
#        109961
#        136103
#        149660
#        167637
#        202675
#        215353
#        233742
#        244680
#        256177
#        269229
#        279944
#        293404
#        310214
#        319661
#        335883
#
# Disc length: 4628 seconds
#
# Revision: 2
# Processed by: cddbd v1.5.2PL0 Copyright (c) Steve Scherf et al.
# Submitted via: ExactAudioCopyFreeDBPlugin 1.0
#
DISCID=25121213
DTITLE=Nina Simone - Seven Classic Albums
DYEAR=1962
DGENRE=Blues
TTITLE0=Just in Time
TTITLE1=He Was Too Good to Me
TTITLE2=House of the Rising Sun
TTITLE3=Bye Bye Blackbird
TTITLE4=Brown Baby
TTITLE5=Zungo
TTITLE6=If He Changed My Name
TTITLE7=Children Go Where I Send You
TTITLE8=Do Nothin' Till You Hear from Me
TTITLE9=I Got It Bad (And That Ain'tgood)
TTITLE10=Hey, Buddy Bolden
TTITLE11=Merry Mending
TTITLE12=Something to Live for
TTITLE13=You Better Know It
TTITLE14=I Like the Sunrise
TTITLE15=Solitude
TTITLE16=The Gal from Joe's
TTITLE17=Satin Doll
TTITLE18=It Don't Mean a Thing (If Itain't Got That Swing)
EXTD=
EXTT0=
EXTT1=
EXTT2=
EXTT3=
EXTT4=
EXTT5=
EXTT6=
EXTT7=
EXTT8=
EXTT9=
EXTT10=
EXTT11=
EXTT12=
EXTT13=
EXTT14=
EXTT15=
EXTT16=
EXTT17=
EXTT18=
PLAYORDER=
